<?xml version="1.0" encoding="iso-8859-1"?>
<!-- Generator: Adobe Illustrator 19.0.0, SVG Export Plug-In . SVG Version: 6.00 Build 0)  -->
<svg version="1.1" id="Layer_1" xmlns="http://www.w3.org/2000/svg" xmlns:xlink="http://www.w3.org/1999/xlink" x="0px" y="0px"
	 viewBox="0 0 390.206 390.206" style="enable-background:new 0 0 390.206 390.206;" xml:space="preserve">
<g>
	<polygon style="fill:#56ACE0;" points="121.406,61.802 130.069,61.802 130.069,68.848 	"/>
	<polygon style="fill:#56ACE0;" points="151.725,61.22 238.481,61.22 238.481,157.156 151.725,86.174 	"/>
	<polygon style="fill:#56ACE0;" points="321.358,61.802 321.358,224.905 260.137,175.063 260.137,61.802 	"/>
</g>
<g>
	<path style="fill:#FFC10D;" d="M21.657,368.549h55.855l8.145-18.424c1.616-3.814,5.43-6.529,9.762-6.529h198.917
		c4.331,0,8.145,2.715,9.762,6.529l8.145,18.424h55.855v-41.18H21.139v41.18H21.657z"/>
	<rect x="21.657" y="21.657" style="fill:#FFC10D;" width="346.828" height="18.424"/>
</g>
<g>
	<rect x="343.079" y="61.802" style="fill:#FFFFFF;" width="25.471" height="202.667"/>
	<rect x="21.657" y="61.802" style="fill:#FFFFFF;" width="25.471" height="202.667"/>
</g>
<polygon style="fill:#FFC10D;" points="68.848,61.802 68.848,73.18 301.899,264.469 321.358,264.469 321.358,253.091 87.273,61.802 
	"/>
<path style="fill:#194F82;" d="M379.345,305.648H10.861C4.913,305.648,0,310.497,0,316.509v62.836
	c0,5.947,4.848,10.861,10.861,10.861h73.697c4.331,0,8.145-2.715,9.762-6.529l8.145-18.424h184.824l8.145,18.424
	c1.616,3.814,5.43,6.529,9.762,6.529h73.697c5.947,0,10.861-4.848,10.861-10.861v-62.836
	C390.206,309.98,385.358,305.648,379.345,305.648z M368.549,368.549h-55.855l-8.145-18.424c-1.616-3.814-5.43-6.529-9.762-6.529
	H95.354c-4.331,0-8.145,2.715-9.762,6.529l-8.145,18.424h-55.79v-41.18h346.828v41.18H368.549z"/>
<g>
	<polygon style="fill:#56ACE0;" points="68.848,101.366 130.069,151.725 130.069,265.051 68.848,265.051 	"/>
	<polygon style="fill:#56ACE0;" points="151.725,169.115 238.481,240.614 238.481,264.469 151.725,264.469 	"/>
	<polygon style="fill:#56ACE0;" points="267.701,264.469 260.137,264.469 260.137,258.521 	"/>
</g>
<path style="fill:#194F82;" d="M379.345,0H10.861C4.913,0,0,4.848,0,10.861v40.081v224.388c0,5.947,4.848,10.861,10.861,10.861
	h368.485c5.947,0,10.861-4.848,10.861-10.861V10.861C390.206,4.848,385.358,0,379.345,0z M321.358,264.469h-19.523L68.848,73.18
	V62.319h18.424l234.667,191.289v10.861H321.358z M68.848,264.469V101.366l61.22,50.424v113.261h-61.22V264.469z M151.725,264.469
	v-95.354l86.691,71.564v23.855L151.725,264.469L151.725,264.469z M260.137,264.469v-5.947l7.564,5.947H260.137z M47.127,264.469
	H21.657V61.802h25.471C47.127,61.802,47.127,264.469,47.127,264.469z M321.358,61.802v163.103l-61.22-49.842V61.802H321.358z
	 M238.481,61.802v95.418l-86.756-71.046V61.22h86.691v0.582H238.481z M130.069,61.802v7.046l-8.663-7.046H130.069z M368.549,264.469
	h-25.471V61.802h25.471V264.469z M368.549,40.081H21.657V21.657h346.828v18.424H368.549z"/>
<g>
</g>
<g>
</g>
<g>
</g>
<g>
</g>
<g>
</g>
<g>
</g>
<g>
</g>
<g>
</g>
<g>
</g>
<g>
</g>
<g>
</g>
<g>
</g>
<g>
</g>
<g>
</g>
<g>
</g>
</svg>
